<svg height="512" viewBox="0 0 64 64" width="512" xmlns="http://www.w3.org/2000/svg"><g id="Filled_outline" data-name="Filled outline"><path d="m42 35h-20v-28a4 4 0 0 1 4-4h12a4 4 0 0 1 4 4z" fill="#ffd782"/><path d="m22 28a4 4 0 0 1 0-8z" fill="#f9bb4b"/><path d="m42 20a4 4 0 0 1 0 8z" fill="#f9bb4b"/><path d="m19 39h26v22h-26z" fill="#50b4f8"/><path d="m19 61h-4a4 4 0 0 1 -4-4v-1l3-14a4.188 4.188 0 0 1 4-3h1z" fill="#4481c3"/><path d="m25 39h-6v16h4c2-6 2-16 2-16z" fill="#fcf05a"/><path d="m19 55h4a2 2 0 0 1 2 2v4a0 0 0 0 1 0 0h-6a0 0 0 0 1 0 0v-6a0 0 0 0 1 0 0z" fill="#f9bb4b"/><path d="m45 61h4a4 4 0 0 0 4-4v-1l-3-14a4.188 4.188 0 0 0 -4-3h-1z" fill="#4481c3"/><path d="m39 39h6v16h-4c-2-6-2-16-2-16z" fill="#fcf05a"/><path d="m39 55h6a0 0 0 0 1 0 0v4a2 2 0 0 1 -2 2h-4a0 0 0 0 1 0 0v-6a0 0 0 0 1 0 0z" fill="#f9bb4b" transform="matrix(-1 0 0 -1 84 116)"/><path d="m30 44-1 10 3 5 3-5-1-10z" fill="#e82169"/><path d="m34 44h-4l-2-5h8z" fill="#ce0d5b"/><g fill="#394d5c"><path d="m26 19h2v2h-2z"/><path d="m31 21h2v4h-2z"/><path d="m36 19h2v2h-2z"/><path d="m28 12s1 4 4 6l1-6s2 3 4 4l1-3 4 4v-10a4 4 0 0 0 -4-4h-12a4 4 0 0 0 -4 4v10a16.654 16.654 0 0 1 6-5z"/></g><path d="m43 36v-7.1a5 5 0 0 0 0-9.8v-12.1a5.006 5.006 0 0 0 -5-5h-12a5.006 5.006 0 0 0 -5 5v12.1a5 5 0 0 0 0 9.8v7.1zm0-14.829a3 3 0 0 1 0 5.658zm-20-14.171a3 3 0 0 1 3-3h12a3 3 0 0 1 3 3v7.586l-2.293-2.293a1 1 0 0 0 -1.655.391l-.586 1.755a16.039 16.039 0 0 1 -2.634-2.994 1 1 0 0 0 -1.818.391l-.708 4.248a11.486 11.486 0 0 1 -2.336-4.328 1 1 0 0 0 -1.417-.651 18.4 18.4 0 0 0 -4.553 3.235zm0 10.329a15.973 15.973 0 0 1 4.429-3.878 11.476 11.476 0 0 0 4.016 5.381 1 1 0 0 0 1.541-.668l.625-3.75a10.657 10.657 0 0 0 2.942 2.486 1 1 0 0 0 1.4-.579l.489-1.464 2.558 2.557v16.586h-18zm-4 6.671a3.006 3.006 0 0 1 2-2.829v5.658a3.006 3.006 0 0 1 -2-2.829z"/><path d="m32 30a3 3 0 0 1 -3-3h-2a5 5 0 0 0 10 0h-2a3 3 0 0 1 -3 3z"/><path d="m50.966 41.742a5.175 5.175 0 0 0 -4.966-3.742h-28a5.187 5.187 0 0 0 -4.978 3.79l-3 14a1.062 1.062 0 0 0 -.022.21v1a5.006 5.006 0 0 0 5 5h34a5.006 5.006 0 0 0 5-5v-1a1.062 1.062 0 0 0 -.022-.21zm-32.966 12.258v.323l-4.371 1.748.742 1.858 3.629-1.452v3.523h-3a3 3 0 0 1 -3-3v-.9l2.966-13.847a3.191 3.191 0 0 1 3.034-2.253zm16.523-14-1.2 3h-2.646l-1.2-3zm-.551 13.77-1.972 3.287-1.972-3.287.877-8.77h2.195zm-13.972-13.77h3.984c-.058 2.53-.342 9.312-1.718 14h-2.266zm4 20h-4v-4h3a1 1 0 0 1 1 1zm14-3v3h-12v-3a3 3 0 0 0 -1.74-2.713c1.404-4.987 1.675-11.763 1.727-14.287h1.336l1.658 4.144-.976 9.756a1 1 0 0 0 .138.615l3 5a1 1 0 0 0 1.714 0l3-5a1 1 0 0 0 .138-.615l-.976-9.756 1.658-4.144h1.336c.052 2.524.323 9.3 1.727 14.287a3 3 0 0 0 -1.74 2.713zm6 3h-4v-3a1 1 0 0 1 1-1h3zm0-6h-2.266c-1.376-4.688-1.66-11.47-1.718-14h3.984zm8 3a3 3 0 0 1 -3 3h-3v-3.523l3.629 1.452.742-1.858-4.371-1.748v-14.323a3.182 3.182 0 0 1 3.022 2.21l2.978 13.895z"/><path d="m26 19h2v2h-2z"/><path d="m31 21h2v4h-2z"/><path d="m36 19h2v2h-2z"/></g></svg>